<svg width="20" height="20" viewBox="0 0 20 20" fill="none" xmlns="http://www.w3.org/2000/svg">
<path d="M9.99967 18.9667C9.09134 18.9667 8.19134 18.7 7.48301 18.175L3.89967 15.5C2.94967 14.7917 2.20801 13.3083 2.20801 12.1333V5.93335C2.20801 4.65001 3.14967 3.28335 4.35801 2.83335L8.51634 1.27501C9.34134 0.966679 10.6413 0.966679 11.4663 1.27501L15.6247 2.83335C16.833 3.28335 17.7747 4.65001 17.7747 5.93335V12.125C17.7747 13.3083 17.033 14.7833 16.083 15.4917L12.4997 18.1667C11.808 18.7 10.908 18.9667 9.99967 18.9667ZM8.95801 2.45001L4.79967 4.00835C4.09134 4.27501 3.46634 5.17501 3.46634 5.94168V12.1333C3.46634 12.925 4.02467 14.0333 4.64967 14.5L8.23301 17.175C9.19134 17.8917 10.808 17.8917 11.7747 17.175L15.358 14.5C15.9913 14.025 16.5413 12.925 16.5413 12.1333V5.93335C16.5413 5.17501 15.9163 4.27501 15.208 4.00001L11.0497 2.44168C10.483 2.24168 9.51634 2.24168 8.95801 2.45001Z" fill="#32A700"/>
<path d="M8.88353 11.8583C8.72519 11.8583 8.56686 11.8 8.44186 11.675L7.1002 10.3333C6.85853 10.0917 6.85853 9.69168 7.1002 9.45002C7.34186 9.20835 7.74186 9.20835 7.98353 9.45002L8.88353 10.35L12.0252 7.20835C12.2669 6.96668 12.6669 6.96668 12.9085 7.20835C13.1502 7.45002 13.1502 7.85002 12.9085 8.09168L9.32519 11.675C9.20019 11.8 9.04186 11.8583 8.88353 11.8583Z" fill="#32A700"/>
</svg>
