<svg width="24" height="24" viewBox="0 0 24 24" fill="none" xmlns="http://www.w3.org/2000/svg">
<path d="M22.75 9L22.75 15C22.75 20.43 20.43 22.75 15 22.75L9 22.75C3.57 22.75 1.25 20.43 1.25 15L1.25 9C1.25 3.57 3.57 1.25 9 1.25L15 1.25C20.43 1.25 22.75 3.57 22.75 9ZM2.75 15C2.75 19.61 4.39 21.25 9 21.25L15 21.25C19.61 21.25 21.25 19.61 21.25 15L21.25 9C21.25 4.39 19.61 2.75 15 2.75L9 2.75C4.39 2.75 2.75 4.39 2.75 9L2.75 15Z" fill="#292D32"/>
<path d="M14.2091 8.46997C14.2091 8.65997 14.1391 8.84997 13.9891 8.99997L10.9891 12L13.9891 15C14.2791 15.29 14.2791 15.77 13.9891 16.06C13.6991 16.35 13.2191 16.35 12.9291 16.06L9.39914 12.53C9.10914 12.24 9.10914 11.76 9.39914 11.47L12.9291 7.93997C13.2191 7.64997 13.6991 7.64997 13.9891 7.93997C14.1391 8.08997 14.2091 8.27997 14.2091 8.46997Z" fill="#292D32"/>
</svg>
