<svg width="20" height="20" viewBox="0 0 20 20" fill="none" xmlns="http://www.w3.org/2000/svg">
<path d="M2.7502 18.9583C2.4502 18.9583 2.15853 18.8833 1.90853 18.7333C1.3502 18.4083 1.03354 17.7583 1.03354 16.95V7.48334C1.03354 5.70834 2.47519 4.26666 4.25019 4.26666H10.7336C12.5086 4.26666 13.9502 5.70834 13.9502 7.48334V16.95C13.9502 17.7583 13.6335 18.4 13.0752 18.7333C12.5169 19.0583 11.8002 19.025 11.0919 18.6333L7.81688 16.8083C7.65855 16.7167 7.32519 16.7167 7.16686 16.8083L3.89187 18.6333C3.50853 18.85 3.11687 18.9583 2.7502 18.9583ZM4.25853 5.525C3.1752 5.525 2.29188 6.40833 2.29188 7.49166V16.9583C2.29188 17.3 2.39188 17.5667 2.55021 17.6583C2.70854 17.75 2.99189 17.7083 3.29189 17.5417L6.56688 15.7167C7.10022 15.425 7.90021 15.425 8.43354 15.7167L11.7085 17.5417C12.0085 17.7083 12.2835 17.75 12.4502 17.6583C12.6085 17.5667 12.7085 17.3 12.7085 16.9583V7.49166C12.7085 6.40833 11.8252 5.525 10.7419 5.525H4.25853Z" fill="#454545"/>
<path d="M12.2417 18.9583C11.875 18.9583 11.4917 18.85 11.1 18.6416L7.825 16.8166C7.66667 16.7333 7.32497 16.7333 7.16664 16.8166L3.89998 18.6416C3.19165 19.0333 2.46665 19.0666 1.91665 18.7416C1.35831 18.4166 1.04166 17.7666 1.04166 16.9666V7.49998C1.04166 5.72498 2.48331 4.28333 4.25831 4.28333H10.7417C12.5167 4.28333 13.9583 5.72498 13.9583 7.49998V16.9666C13.9583 17.7666 13.6417 18.4166 13.0833 18.7416C12.8333 18.8833 12.55 18.9583 12.2417 18.9583ZM7.49999 15.5C7.83332 15.5 8.15832 15.575 8.43332 15.725L11.7083 17.55C12.0083 17.7166 12.2917 17.7583 12.45 17.6583C12.6083 17.5666 12.7083 17.3 12.7083 16.9583V7.49164C12.7083 6.4083 11.825 5.52498 10.7417 5.52498H4.25831C3.17498 5.52498 2.29166 6.4083 2.29166 7.49164V16.9583C2.29166 17.3 2.39165 17.5666 2.54999 17.6583C2.70832 17.75 2.99167 17.7083 3.29167 17.5416L6.56666 15.7166C6.83333 15.575 7.16666 15.5 7.49999 15.5Z" fill="#454545"/>
<path d="M17.2417 15.725C16.875 15.725 16.4917 15.6166 16.1 15.4083L13.025 13.6916C12.825 13.5833 12.7083 13.375 12.7083 13.15V7.49998C12.7083 6.41665 11.825 5.53333 10.7417 5.53333H6.66666C6.32499 5.53333 6.04166 5.24999 6.04166 4.90833V4.26664C6.04166 2.49164 7.48331 1.04999 9.25831 1.04999H15.7417C17.5167 1.04999 18.9583 2.49164 18.9583 4.26664V13.7333C18.9583 14.5333 18.6417 15.1833 18.0833 15.5083C17.8333 15.65 17.55 15.725 17.2417 15.725ZM13.9583 12.775L16.7083 14.3166C17.0083 14.4833 17.2833 14.525 17.45 14.425C17.6167 14.325 17.7083 14.0666 17.7083 13.725V4.2583C17.7083 3.17497 16.825 2.29165 15.7417 2.29165H9.25831C8.17498 2.29165 7.29166 3.17497 7.29166 4.2583V4.27498H10.7417C12.5167 4.27498 13.9583 5.71664 13.9583 7.49164V12.775Z" fill="#454545"/>
</svg>
