<svg width="20" height="20" viewBox="0 0 20 20" fill="none" xmlns="http://www.w3.org/2000/svg">
<path d="M7.64165 12.9833C7.48332 12.9833 7.32499 12.925 7.19999 12.8C6.95832 12.5583 6.95832 12.1583 7.19999 11.9167L11.9167 7.19999C12.1583 6.95832 12.5583 6.95832 12.8 7.19999C13.0417 7.44165 13.0417 7.84165 12.8 8.08332L8.08332 12.8C7.96665 12.925 7.79999 12.9833 7.64165 12.9833Z" fill="#0C0C0C"/>
<path d="M12.3583 12.9833C12.2 12.9833 12.0417 12.925 11.9167 12.8L7.19999 8.08332C6.95832 7.84165 6.95832 7.44165 7.19999 7.19999C7.44165 6.95832 7.84165 6.95832 8.08332 7.19999L12.8 11.9167C13.0417 12.1583 13.0417 12.5583 12.8 12.8C12.675 12.925 12.5167 12.9833 12.3583 12.9833Z" fill="#0C0C0C"/>
<path d="M12.5 18.9584H7.50002C2.97502 18.9584 1.04169 17.025 1.04169 12.5V7.50002C1.04169 2.97502 2.97502 1.04169 7.50002 1.04169H12.5C17.025 1.04169 18.9584 2.97502 18.9584 7.50002V12.5C18.9584 17.025 17.025 18.9584 12.5 18.9584ZM7.50002 2.29169C3.65835 2.29169 2.29169 3.65835 2.29169 7.50002V12.5C2.29169 16.3417 3.65835 17.7084 7.50002 17.7084H12.5C16.3417 17.7084 17.7084 16.3417 17.7084 12.5V7.50002C17.7084 3.65835 16.3417 2.29169 12.5 2.29169H7.50002Z" fill="#0C0C0C"/>
</svg>
