<svg width="108" height="108" viewBox="0 0 108 108" fill="none" xmlns="http://www.w3.org/2000/svg">
<path d="M14.852 102.375C13.232 102.375 11.657 101.97 10.307 101.16C7.29198 99.4051 5.58203 95.895 5.58203 91.53V40.4101C5.58203 30.8251 13.367 23.04 22.952 23.04H57.9621C67.5471 23.04 75.332 30.8251 75.332 40.4101V91.53C75.332 95.895 73.6221 99.3601 70.6071 101.16C67.5921 102.915 63.7221 102.735 59.8971 100.62L42.2121 90.7651C41.3571 90.2701 39.557 90.2701 38.702 90.7651L21.017 100.62C18.947 101.79 16.832 102.375 14.852 102.375ZM22.997 29.8351C17.147 29.8351 12.3771 34.605 12.3771 40.455V91.5751C12.3771 93.4201 12.9171 94.8601 13.7721 95.3551C14.6271 95.8501 16.1571 95.625 17.7771 94.725L35.4621 84.87C38.3421 83.295 42.6621 83.295 45.5421 84.87L63.227 94.725C64.847 95.625 66.3321 95.8501 67.2321 95.3551C68.0871 94.8601 68.6271 93.4201 68.6271 91.5751V40.455C68.6271 34.605 63.8571 29.8351 58.0071 29.8351H22.997Z" fill="#0C0C0C"/>
<path d="M66.105 102.375C64.125 102.375 62.055 101.79 59.94 100.665L42.2551 90.8098C41.4001 90.3598 39.5549 90.3598 38.6999 90.8098L21.06 100.665C17.235 102.78 13.3199 102.96 10.3499 101.205C7.33494 99.4498 5.625 95.9398 5.625 91.6198V40.4998C5.625 30.9148 13.4099 23.1299 22.9949 23.1299H58.0051C67.5901 23.1299 75.375 30.9148 75.375 40.4998V91.6198C75.375 95.9398 73.6651 99.4498 70.6501 101.205C69.3001 101.97 67.77 102.375 66.105 102.375ZM40.5 83.6998C42.3 83.6998 44.055 84.1048 45.54 84.9148L63.2249 94.7698C64.8449 95.6698 66.375 95.8948 67.23 95.3548C68.085 94.8598 68.625 93.4198 68.625 91.5748V40.4548C68.625 34.6048 63.8551 29.8348 58.0051 29.8348H22.9949C17.1449 29.8348 12.375 34.6048 12.375 40.4548V91.5748C12.375 93.4198 12.915 94.8598 13.77 95.3548C14.625 95.8498 16.1551 95.6248 17.7751 94.7248L35.46 84.8698C36.9 84.1048 38.7 83.6998 40.5 83.6998Z" fill="#D2F5FF"/>
<path d="M93.105 84.9149C91.125 84.9149 89.055 84.3298 86.94 83.2048L70.335 73.9348C69.255 73.3498 68.625 72.2249 68.625 71.0099V40.4999C68.625 34.6499 63.8551 29.8799 58.0051 29.8799H36C34.155 29.8799 32.625 28.3499 32.625 26.5049V23.0399C32.625 13.4549 40.4099 5.66992 49.9949 5.66992H85.0051C94.5901 5.66992 102.375 13.4549 102.375 23.0399V74.1599C102.375 78.4799 100.665 81.9898 97.6501 83.7448C96.3001 84.5098 94.77 84.9149 93.105 84.9149ZM75.375 68.9848L90.2249 77.3098C91.8449 78.2098 93.33 78.4349 94.23 77.8949C95.13 77.3549 95.625 75.9599 95.625 74.1149V22.9948C95.625 17.1448 90.8551 12.3749 85.0051 12.3749H49.9949C44.1449 12.3749 39.375 17.1448 39.375 22.9948V23.0849H58.0051C67.5901 23.0849 75.375 30.8698 75.375 40.4548V68.9848Z" fill="#D2F5FF"/>
</svg>
