<svg width="18" height="18" viewBox="0 0 18 18" fill="none" xmlns="http://www.w3.org/2000/svg">
<path d="M8.99935 17.3333C7.86046 17.3333 6.78407 17.1145 5.77018 16.677C4.75629 16.2395 3.87088 15.6423 3.11393 14.8854C2.35699 14.1284 1.75977 13.243 1.32227 12.2291C0.884766 11.2152 0.666016 10.1388 0.666016 8.99996C0.666016 7.84718 0.884766 6.76732 1.32227 5.76038C1.75977 4.75343 2.35699 3.87149 3.11393 3.11454C3.87088 2.3576 4.75629 1.76038 5.77018 1.32288C6.78407 0.885376 7.86046 0.666626 8.99935 0.666626C10.1521 0.666626 11.232 0.885376 12.2389 1.32288C13.2459 1.76038 14.1278 2.3576 14.8848 3.11454C15.6417 3.87149 16.2389 4.75343 16.6764 5.76038C17.1139 6.76732 17.3327 7.84718 17.3327 8.99996C17.3327 10.1388 17.1139 11.2152 16.6764 12.2291C16.2389 13.243 15.6417 14.1284 14.8848 14.8854C14.1278 15.6423 13.2459 16.2395 12.2389 16.677C11.232 17.1145 10.1521 17.3333 8.99935 17.3333ZM8.99935 15.625C9.36046 15.125 9.67296 14.6041 9.93685 14.0625C10.2007 13.5208 10.416 12.9444 10.5827 12.3333H7.41602C7.58268 12.9444 7.79796 13.5208 8.06185 14.0625C8.32574 14.6041 8.63824 15.125 8.99935 15.625ZM6.83268 15.2916C6.58268 14.8333 6.36393 14.3576 6.17643 13.8645C5.98893 13.3715 5.83268 12.8611 5.70768 12.3333H3.24935C3.65213 13.0277 4.1556 13.6319 4.75977 14.1458C5.36393 14.6597 6.0549 15.0416 6.83268 15.2916ZM11.166 15.2916C11.9438 15.0416 12.6348 14.6597 13.2389 14.1458C13.8431 13.6319 14.3466 13.0277 14.7493 12.3333H12.291C12.166 12.8611 12.0098 13.3715 11.8223 13.8645C11.6348 14.3576 11.416 14.8333 11.166 15.2916ZM2.54102 10.6666H5.37435C5.33268 10.3888 5.30143 10.1145 5.2806 9.84371C5.25977 9.57288 5.24935 9.29163 5.24935 8.99996C5.24935 8.70829 5.25977 8.42704 5.2806 8.15621C5.30143 7.88538 5.33268 7.61107 5.37435 7.33329H2.54102C2.47157 7.61107 2.41949 7.88538 2.38477 8.15621C2.35004 8.42704 2.33268 8.70829 2.33268 8.99996C2.33268 9.29163 2.35004 9.57288 2.38477 9.84371C2.41949 10.1145 2.47157 10.3888 2.54102 10.6666ZM7.04102 10.6666H10.9577C10.9993 10.3888 11.0306 10.1145 11.0514 9.84371C11.0723 9.57288 11.0827 9.29163 11.0827 8.99996C11.0827 8.70829 11.0723 8.42704 11.0514 8.15621C11.0306 7.88538 10.9993 7.61107 10.9577 7.33329H7.04102C6.99935 7.61107 6.9681 7.88538 6.94727 8.15621C6.92643 8.42704 6.91602 8.70829 6.91602 8.99996C6.91602 9.29163 6.92643 9.57288 6.94727 9.84371C6.9681 10.1145 6.99935 10.3888 7.04102 10.6666ZM12.6243 10.6666H15.4577C15.5271 10.3888 15.5792 10.1145 15.6139 9.84371C15.6487 9.57288 15.666 9.29163 15.666 8.99996C15.666 8.70829 15.6487 8.42704 15.6139 8.15621C15.5792 7.88538 15.5271 7.61107 15.4577 7.33329H12.6243C12.666 7.61107 12.6973 7.88538 12.7181 8.15621C12.7389 8.42704 12.7493 8.70829 12.7493 8.99996C12.7493 9.29163 12.7389 9.57288 12.7181 9.84371C12.6973 10.1145 12.666 10.3888 12.6243 10.6666ZM12.291 5.66663H14.7493C14.3466 4.97218 13.8431 4.36802 13.2389 3.85413C12.6348 3.34024 11.9438 2.95829 11.166 2.70829C11.416 3.16663 11.6348 3.64232 11.8223 4.13538C12.0098 4.62843 12.166 5.13885 12.291 5.66663ZM7.41602 5.66663H10.5827C10.416 5.05552 10.2007 4.47913 9.93685 3.93746C9.67296 3.39579 9.36046 2.87496 8.99935 2.37496C8.63824 2.87496 8.32574 3.39579 8.06185 3.93746C7.79796 4.47913 7.58268 5.05552 7.41602 5.66663ZM3.24935 5.66663H5.70768C5.83268 5.13885 5.98893 4.62843 6.17643 4.13538C6.36393 3.64232 6.58268 3.16663 6.83268 2.70829C6.0549 2.95829 5.36393 3.34024 4.75977 3.85413C4.1556 4.36802 3.65213 4.97218 3.24935 5.66663Z" fill="#3D3D3D"/>
</svg>
