<svg width="20" height="20" viewBox="0 0 20 20" fill="none" xmlns="http://www.w3.org/2000/svg">
<path d="M10 19.0082C9.42501 19.0082 8.88334 18.7165 8.50001 18.2082L7.25001 16.5415C7.22501 16.5082 7.12501 16.4665 7.08334 16.4582H6.66667C3.19167 16.4582 1.04167 15.5165 1.04167 10.8332V6.6665C1.04167 2.98317 2.98334 1.0415 6.66667 1.0415H13.3333C17.0167 1.0415 18.9583 2.98317 18.9583 6.6665V10.8332C18.9583 14.5165 17.0167 16.4582 13.3333 16.4582H12.9167C12.85 16.4582 12.7917 16.4915 12.75 16.5415L11.5 18.2082C11.1167 18.7165 10.575 19.0082 10 19.0082ZM6.66667 2.2915C3.68334 2.2915 2.29167 3.68317 2.29167 6.6665V10.8332C2.29167 14.5998 3.58334 15.2082 6.66667 15.2082H7.08334C7.50834 15.2082 7.99167 15.4498 8.25001 15.7915L9.5 17.4582C9.79167 17.8415 10.2083 17.8415 10.5 17.4582L11.75 15.7915C12.025 15.4248 12.4583 15.2082 12.9167 15.2082H13.3333C16.3167 15.2082 17.7083 13.8165 17.7083 10.8332V6.6665C17.7083 3.68317 16.3167 2.2915 13.3333 2.2915H6.66667Z" fill="#0C0C0C"/>
<path d="M10 10.0002C9.53334 10.0002 9.16667 9.62516 9.16667 9.16683C9.16667 8.7085 9.54167 8.3335 10 8.3335C10.4583 8.3335 10.8333 8.7085 10.8333 9.16683C10.8333 9.62516 10.4667 10.0002 10 10.0002Z" fill="#0C0C0C"/>
<path d="M13.3333 10.0002C12.8667 10.0002 12.5 9.62516 12.5 9.16683C12.5 8.7085 12.875 8.3335 13.3333 8.3335C13.7917 8.3335 14.1667 8.7085 14.1667 9.16683C14.1667 9.62516 13.8 10.0002 13.3333 10.0002Z" fill="#0C0C0C"/>
<path d="M6.66666 10.0002C6.19999 10.0002 5.83333 9.62516 5.83333 9.16683C5.83333 8.7085 6.20833 8.3335 6.66666 8.3335C7.12499 8.3335 7.49999 8.7085 7.49999 9.16683C7.49999 9.62516 7.13333 10.0002 6.66666 10.0002Z" fill="#0C0C0C"/>
</svg>
