<svg width="20" height="20" viewBox="0 0 20 20" fill="none" xmlns="http://www.w3.org/2000/svg">
<path d="M13.3333 18.9582H6.66668C4.15001 18.9582 2.70834 17.5165 2.70834 14.9998V6.87484C2.70834 4.24984 4.04168 2.9165 6.66668 2.9165C7.00834 2.9165 7.29168 3.19984 7.29168 3.5415C7.29168 3.87484 7.42501 4.1915 7.65835 4.42484C7.89168 4.65817 8.20834 4.7915 8.54168 4.7915H11.4583C12.15 4.7915 12.7083 4.23317 12.7083 3.5415C12.7083 3.19984 12.9917 2.9165 13.3333 2.9165C15.9583 2.9165 17.2917 4.24984 17.2917 6.87484V14.9998C17.2917 17.5165 15.85 18.9582 13.3333 18.9582ZM6.12499 4.18317C4.80832 4.29151 3.95834 4.88317 3.95834 6.87484V14.9998C3.95834 16.8498 4.81668 17.7082 6.66668 17.7082H13.3333C15.1833 17.7082 16.0417 16.8498 16.0417 14.9998V6.87484C16.0417 4.88317 15.1917 4.29984 13.875 4.18317C13.5917 5.24984 12.6167 6.0415 11.4583 6.0415H8.54168C7.87501 6.0415 7.25001 5.78317 6.77501 5.30817C6.45835 4.9915 6.24166 4.60817 6.12499 4.18317Z" fill="#0C0C0C"/>
<path d="M11.4583 6.0415H8.54166C7.87499 6.0415 7.24999 5.78317 6.77499 5.30817C6.29999 4.83317 6.04166 4.20817 6.04166 3.5415C6.04166 2.1665 7.16666 1.0415 8.54166 1.0415H11.4583C12.125 1.0415 12.75 1.29984 13.225 1.77484C13.7 2.24984 13.9583 2.87484 13.9583 3.5415C13.9583 4.9165 12.8333 6.0415 11.4583 6.0415ZM8.54166 2.2915C7.84999 2.2915 7.29166 2.84984 7.29166 3.5415C7.29166 3.87484 7.42499 4.1915 7.65833 4.42484C7.89166 4.65817 8.20832 4.7915 8.54166 4.7915H11.4583C12.15 4.7915 12.7083 4.23317 12.7083 3.5415C12.7083 3.20817 12.575 2.89151 12.3417 2.65817C12.1083 2.42484 11.7917 2.2915 11.4583 2.2915H8.54166Z" fill="#0C0C0C"/>
<path d="M9.99999 11.4585H6.66666C6.32499 11.4585 6.04166 11.1752 6.04166 10.8335C6.04166 10.4918 6.32499 10.2085 6.66666 10.2085H9.99999C10.3417 10.2085 10.625 10.4918 10.625 10.8335C10.625 11.1752 10.3417 11.4585 9.99999 11.4585Z" fill="#0C0C0C"/>
<path d="M13.3333 14.7915H6.66666C6.32499 14.7915 6.04166 14.5082 6.04166 14.1665C6.04166 13.8248 6.32499 13.5415 6.66666 13.5415H13.3333C13.675 13.5415 13.9583 13.8248 13.9583 14.1665C13.9583 14.5082 13.675 14.7915 13.3333 14.7915Z" fill="#0C0C0C"/>
</svg>
