<svg width="20" height="20" viewBox="0 0 20 20" fill="none" xmlns="http://www.w3.org/2000/svg">
<path d="M10.0008 18.9583C9.44245 18.9583 8.87578 18.8166 8.37578 18.5249L3.42578 15.6666C2.42578 15.0833 1.80078 14.0083 1.80078 12.8499V7.14997C1.80078 5.99164 2.42578 4.91664 3.42578 4.3333L8.37578 1.47498C9.37578 0.891642 10.6174 0.891642 11.6258 1.47498L16.5758 4.3333C17.5758 4.91664 18.2008 5.99164 18.2008 7.14997V12.8499C18.2008 14.0083 17.5758 15.0833 16.5758 15.6666L11.6258 18.5249C11.1258 18.8166 10.5591 18.9583 10.0008 18.9583ZM10.0008 2.29163C9.65911 2.29163 9.30911 2.3833 9.00078 2.5583L4.05078 5.41663C3.43411 5.77496 3.05078 6.43331 3.05078 7.14997V12.8499C3.05078 13.5583 3.43411 14.225 4.05078 14.5833L9.00078 17.4416C9.61745 17.8 10.3841 17.8 11.0008 17.4416L15.9508 14.5833C16.5674 14.225 16.9508 13.5666 16.9508 12.8499V7.14997C16.9508 6.44164 16.5674 5.77496 15.9508 5.41663L11.0008 2.5583C10.6924 2.3833 10.3424 2.29163 10.0008 2.29163Z" fill="#3D3D3D"/>
<path d="M10.0003 9.7917C8.58359 9.7917 7.43359 8.64168 7.43359 7.22502C7.43359 5.80835 8.58359 4.65839 10.0003 4.65839C11.4169 4.65839 12.5669 5.80835 12.5669 7.22502C12.5669 8.64168 11.4169 9.7917 10.0003 9.7917ZM10.0003 5.90839C9.27526 5.90839 8.68359 6.50002 8.68359 7.22502C8.68359 7.95002 9.27526 8.5417 10.0003 8.5417C10.7253 8.5417 11.3169 7.95002 11.3169 7.22502C11.3169 6.50002 10.7253 5.90839 10.0003 5.90839Z" fill="#3D3D3D"/>
<path d="M13.3327 14.5084C12.991 14.5084 12.7077 14.2251 12.7077 13.8834C12.7077 12.7334 11.491 11.7918 9.99935 11.7918C8.50768 11.7918 7.29102 12.7334 7.29102 13.8834C7.29102 14.2251 7.00768 14.5084 6.66602 14.5084C6.32435 14.5084 6.04102 14.2251 6.04102 13.8834C6.04102 12.0418 7.81602 10.5418 9.99935 10.5418C12.1827 10.5418 13.9577 12.0418 13.9577 13.8834C13.9577 14.2251 13.6743 14.5084 13.3327 14.5084Z" fill="#3D3D3D"/>
</svg>
