<svg width="14" height="14" viewBox="0 0 14 14" fill="none" xmlns="http://www.w3.org/2000/svg">
<path d="M8.48685 13.0783C8.29435 13.0783 8.11352 12.95 8.06102 12.7516C7.99685 12.5183 8.13685 12.2791 8.37602 12.215C10.7443 11.5908 12.3952 9.44413 12.3952 6.99413C12.3952 4.01913 9.97435 1.59829 6.99935 1.59829C4.47352 1.59829 2.81685 3.07413 2.04102 3.96663H3.75602C3.99518 3.96663 4.19352 4.16496 4.19352 4.40413C4.19352 4.64329 4.00102 4.84746 3.75602 4.84746H1.17185C1.14268 4.84746 1.09018 4.84163 1.04935 4.82996C0.996849 4.81246 0.950182 4.78913 0.909349 4.75996C0.856849 4.72496 0.816016 4.67829 0.786849 4.62579C0.757682 4.57329 0.734349 4.50913 0.728516 4.44496C0.728516 4.42746 0.728516 4.41579 0.728516 4.39829V1.74996C0.728516 1.51079 0.926849 1.31246 1.16602 1.31246C1.40518 1.31246 1.60352 1.51079 1.60352 1.74996V3.14413C2.55435 2.12329 4.34518 0.729126 6.99935 0.729126C10.4585 0.729126 13.2702 3.54079 13.2702 6.99996C13.2702 9.84663 11.351 12.3433 8.59768 13.0666C8.56268 13.0725 8.52185 13.0783 8.48685 13.0783Z" fill="#0064D3"/>
<path d="M6.58518 13.2592C6.57352 13.2592 6.56185 13.2533 6.55602 13.2533C5.92602 13.2125 5.30768 13.0725 4.72435 12.845C4.55518 12.7808 4.43852 12.6117 4.44435 12.4308C4.44435 12.3783 4.45602 12.3258 4.47352 12.2792C4.56102 12.0575 4.82352 11.9467 5.03935 12.0283C5.54685 12.2267 6.07768 12.3433 6.61435 12.3842C6.84185 12.3958 7.02268 12.5942 7.02268 12.8275L7.01685 12.8508C7.00518 13.0783 6.81268 13.2592 6.58518 13.2592ZM3.37102 12.005C3.27185 12.005 3.17852 11.97 3.09685 11.9117C2.60685 11.515 2.17518 11.0542 1.82518 10.5408C1.77268 10.465 1.74352 10.3833 1.74352 10.2958C1.74352 10.15 1.81352 10.0158 1.93602 9.93417C2.12852 9.8 2.40852 9.8525 2.54268 10.0392C2.54268 10.045 2.54268 10.045 2.54268 10.045C2.54852 10.0508 2.55435 10.0625 2.56018 10.0683C2.86352 10.5058 3.23102 10.8967 3.64518 11.2233C3.74435 11.305 3.80852 11.4275 3.80852 11.5617C3.80852 11.6608 3.77935 11.76 3.71518 11.8417C3.62768 11.9467 3.50518 12.005 3.37102 12.005ZM1.42268 9.15833C1.23018 9.15833 1.06102 9.03583 1.00852 8.855C0.821849 8.25417 0.728516 7.63 0.728516 7V6.99417C0.734349 6.755 0.926849 6.5625 1.16602 6.5625C1.40518 6.5625 1.60352 6.76083 1.60352 7C1.60352 7.54833 1.68518 8.085 1.84268 8.5925C1.85435 8.63917 1.86018 8.68 1.86018 8.72667C1.86018 8.91333 1.73768 9.0825 1.55102 9.14083C1.51018 9.1525 1.46935 9.15833 1.42268 9.15833Z" fill="#0064D3"/>
</svg>
