<svg width="20" height="20" viewBox="0 0 20 20" fill="none" xmlns="http://www.w3.org/2000/svg">
<path d="M9.99967 18.9667C9.09134 18.9667 8.19134 18.7 7.48301 18.175L3.89967 15.5C2.94967 14.7917 2.20801 13.3083 2.20801 12.1333V5.93335C2.20801 4.65001 3.14967 3.28335 4.35801 2.83335L8.51634 1.27501C9.34134 0.966679 10.6413 0.966679 11.4663 1.27501L15.6247 2.83335C16.833 3.28335 17.7747 4.65001 17.7747 5.93335V12.125C17.7747 13.3083 17.033 14.7833 16.083 15.4917L12.4997 18.1667C11.808 18.7 10.908 18.9667 9.99967 18.9667ZM8.95801 2.45001L4.79967 4.00835C4.09134 4.27501 3.46634 5.17501 3.46634 5.94168V12.1333C3.46634 12.925 4.02467 14.0333 4.64967 14.5L8.23301 17.175C9.19134 17.8917 10.808 17.8917 11.7747 17.175L15.358 14.5C15.9913 14.025 16.5413 12.925 16.5413 12.1333V5.93335C16.5413 5.17501 15.9163 4.27501 15.208 4.00001L11.0497 2.44168C10.483 2.24168 9.51634 2.24168 8.95801 2.45001Z" fill="#E21B1C"/>
<path d="M11.7915 11.825C11.6332 11.825 11.4749 11.7667 11.3499 11.6417L7.8082 8.09998C7.56654 7.85832 7.56654 7.45832 7.8082 7.21665C8.04987 6.97498 8.44987 6.97498 8.69154 7.21665L12.2332 10.7583C12.4749 11 12.4749 11.4 12.2332 11.6417C12.1082 11.7583 11.9499 11.825 11.7915 11.825Z" fill="#E21B1C"/>
<path d="M8.20788 11.8583C8.04954 11.8583 7.89121 11.8 7.76621 11.675C7.52454 11.4333 7.52454 11.0333 7.76621 10.7916L11.3079 7.24998C11.5495 7.00831 11.9495 7.00831 12.1912 7.24998C12.4329 7.49164 12.4329 7.89164 12.1912 8.13331L8.64954 11.675C8.53288 11.8 8.36621 11.8583 8.20788 11.8583Z" fill="#E21B1C"/>
</svg>
