<svg width="20" height="20" viewBox="0 0 20 20" fill="none" xmlns="http://www.w3.org/2000/svg">
<path d="M12.4993 18.9583H7.49935C2.97435 18.9583 1.04102 17.025 1.04102 12.5V7.49996C1.04102 2.97496 2.97435 1.04163 7.49935 1.04163H12.4993C17.0243 1.04163 18.9577 2.97496 18.9577 7.49996V12.5C18.9577 17.025 17.0243 18.9583 12.4993 18.9583ZM7.49935 2.29163C3.65768 2.29163 2.29102 3.65829 2.29102 7.49996V12.5C2.29102 16.3416 3.65768 17.7083 7.49935 17.7083H12.4993C16.341 17.7083 17.7077 16.3416 17.7077 12.5V7.49996C17.7077 3.65829 16.341 2.29163 12.4993 2.29163H7.49935Z" fill="#3D3D3D"/>
<path d="M14.5827 9.99996C14.5827 12.5333 12.5327 14.5833 9.99935 14.5833C7.46602 14.5833 5.92434 12.0333 5.92434 12.0333M5.92434 12.0333H7.99101M5.92434 12.0333V14.325M5.41602 9.99996C5.41602 7.46663 7.44935 5.41663 9.99935 5.41663C13.0577 5.41663 14.5827 7.96662 14.5827 7.96662M14.5827 7.96662V5.67496M14.5827 7.96662H12.5493" stroke="#3D3D3D" stroke-width="1.5" stroke-linecap="round" stroke-linejoin="round"/>
</svg>
