<svg width="20" height="20" viewBox="0 0 20 20" fill="none" xmlns="http://www.w3.org/2000/svg">
<path d="M2.74987 18.9583C2.44987 18.9583 2.15819 18.8833 1.90819 18.7333C1.34986 18.4083 1.0332 17.7583 1.0332 16.95V7.48334C1.0332 5.70834 2.47486 4.26666 4.24986 4.26666H10.7332C12.5082 4.26666 13.9499 5.70834 13.9499 7.48334V16.95C13.9499 17.7583 13.6332 18.4 13.0749 18.7333C12.5165 19.0583 11.7999 19.025 11.0915 18.6333L7.81655 16.8083C7.65822 16.7167 7.32486 16.7167 7.16652 16.8083L3.89153 18.6333C3.5082 18.85 3.11653 18.9583 2.74987 18.9583ZM4.2582 5.525C3.17487 5.525 2.29154 6.40833 2.29154 7.49166V16.9583C2.29154 17.3 2.39154 17.5667 2.54988 17.6583C2.70821 17.75 2.99155 17.7083 3.29155 17.5417L6.56655 15.7167C7.09988 15.425 7.89987 15.425 8.43321 15.7167L11.7082 17.5417C12.0082 17.7083 12.2832 17.75 12.4499 17.6583C12.6082 17.5667 12.7082 17.3 12.7082 16.9583V7.49166C12.7082 6.40833 11.8249 5.525 10.7416 5.525H4.2582Z" fill="white"/>
<path d="M12.242 18.9583C11.8753 18.9583 11.492 18.85 11.1003 18.6416L7.82534 16.8166C7.667 16.7333 7.3253 16.7333 7.16697 16.8166L3.90032 18.6416C3.19199 19.0333 2.46698 19.0666 1.91698 18.7416C1.35865 18.4166 1.04199 17.7666 1.04199 16.9666V7.49998C1.04199 5.72498 2.48365 4.28333 4.25865 4.28333H10.742C12.517 4.28333 13.9587 5.72498 13.9587 7.49998V16.9666C13.9587 17.7666 13.642 18.4166 13.0837 18.7416C12.8337 18.8833 12.5503 18.9583 12.242 18.9583ZM7.50033 15.5C7.83366 15.5 8.15865 15.575 8.43365 15.725L11.7086 17.55C12.0086 17.7166 12.292 17.7583 12.4503 17.6583C12.6087 17.5666 12.7087 17.3 12.7087 16.9583V7.49164C12.7087 6.4083 11.8253 5.52498 10.742 5.52498H4.25865C3.17531 5.52498 2.29199 6.4083 2.29199 7.49164V16.9583C2.29199 17.3 2.39199 17.5666 2.55032 17.6583C2.70866 17.75 2.992 17.7083 3.292 17.5416L6.567 15.7166C6.83366 15.575 7.16699 15.5 7.50033 15.5Z" fill="white"/>
<path d="M17.242 15.725C16.8753 15.725 16.492 15.6166 16.1003 15.4083L13.0253 13.6916C12.8253 13.5833 12.7087 13.375 12.7087 13.15V7.49998C12.7087 6.41665 11.8253 5.53333 10.742 5.53333H6.66699C6.32533 5.53333 6.04199 5.24999 6.04199 4.90833V4.26664C6.04199 2.49164 7.48365 1.04999 9.25865 1.04999H15.742C17.517 1.04999 18.9587 2.49164 18.9587 4.26664V13.7333C18.9587 14.5333 18.642 15.1833 18.0837 15.5083C17.8337 15.65 17.5503 15.725 17.242 15.725ZM13.9587 12.775L16.7086 14.3166C17.0086 14.4833 17.2837 14.525 17.4503 14.425C17.617 14.325 17.7087 14.0666 17.7087 13.725V4.2583C17.7087 3.17497 16.8253 2.29165 15.742 2.29165H9.25865C8.17531 2.29165 7.29199 3.17497 7.29199 4.2583V4.27498H10.742C12.517 4.27498 13.9587 5.71664 13.9587 7.49164V12.775Z" fill="white"/>
</svg>
