<svg width="20" height="20" viewBox="0 0 20 20" fill="none" xmlns="http://www.w3.org/2000/svg">
<path d="M15 18.3334C14.3056 18.3334 13.7153 18.0903 13.2292 17.6042C12.7431 17.1181 12.5 16.5278 12.5 15.8334C12.5 15.7361 12.5069 15.6354 12.5208 15.5313C12.5347 15.4271 12.5556 15.3334 12.5833 15.25L6.70833 11.8334C6.47222 12.0417 6.20833 12.2049 5.91667 12.3229C5.625 12.441 5.31944 12.5 5 12.5C4.30556 12.5 3.71528 12.257 3.22917 11.7709C2.74306 11.2847 2.5 10.6945 2.5 10C2.5 9.30558 2.74306 8.7153 3.22917 8.22919C3.71528 7.74308 4.30556 7.50002 5 7.50002C5.31944 7.50002 5.625 7.55905 5.91667 7.6771C6.20833 7.79516 6.47222 7.95835 6.70833 8.16669L12.5833 4.75002C12.5556 4.66669 12.5347 4.57294 12.5208 4.46877C12.5069 4.3646 12.5 4.26391 12.5 4.16669C12.5 3.47224 12.7431 2.88196 13.2292 2.39585C13.7153 1.90974 14.3056 1.66669 15 1.66669C15.6944 1.66669 16.2847 1.90974 16.7708 2.39585C17.2569 2.88196 17.5 3.47224 17.5 4.16669C17.5 4.86113 17.2569 5.45141 16.7708 5.93752C16.2847 6.42363 15.6944 6.66669 15 6.66669C14.6806 6.66669 14.375 6.60766 14.0833 6.4896C13.7917 6.37155 13.5278 6.20835 13.2917 6.00002L7.41667 9.41669C7.44444 9.50002 7.46528 9.59377 7.47917 9.69794C7.49306 9.8021 7.5 9.9028 7.5 10C7.5 10.0972 7.49306 10.1979 7.47917 10.3021C7.46528 10.4063 7.44444 10.5 7.41667 10.5834L13.2917 14C13.5278 13.7917 13.7917 13.6285 14.0833 13.5104C14.375 13.3924 14.6806 13.3334 15 13.3334C15.6944 13.3334 16.2847 13.5764 16.7708 14.0625C17.2569 14.5486 17.5 15.1389 17.5 15.8334C17.5 16.5278 17.2569 17.1181 16.7708 17.6042C16.2847 18.0903 15.6944 18.3334 15 18.3334ZM15 5.00002C15.2361 5.00002 15.434 4.92016 15.5938 4.76044C15.7535 4.60071 15.8333 4.4028 15.8333 4.16669C15.8333 3.93058 15.7535 3.73266 15.5938 3.57294C15.434 3.41322 15.2361 3.33335 15 3.33335C14.7639 3.33335 14.566 3.41322 14.4062 3.57294C14.2465 3.73266 14.1667 3.93058 14.1667 4.16669C14.1667 4.4028 14.2465 4.60071 14.4062 4.76044C14.566 4.92016 14.7639 5.00002 15 5.00002ZM5 10.8334C5.23611 10.8334 5.43403 10.7535 5.59375 10.5938C5.75347 10.434 5.83333 10.2361 5.83333 10C5.83333 9.76391 5.75347 9.56599 5.59375 9.40627C5.43403 9.24655 5.23611 9.16669 5 9.16669C4.76389 9.16669 4.56597 9.24655 4.40625 9.40627C4.24653 9.56599 4.16667 9.76391 4.16667 10C4.16667 10.2361 4.24653 10.434 4.40625 10.5938C4.56597 10.7535 4.76389 10.8334 5 10.8334ZM15 16.6667C15.2361 16.6667 15.434 16.5868 15.5938 16.4271C15.7535 16.2674 15.8333 16.0695 15.8333 15.8334C15.8333 15.5972 15.7535 15.3993 15.5938 15.2396C15.434 15.0799 15.2361 15 15 15C14.7639 15 14.566 15.0799 14.4062 15.2396C14.2465 15.3993 14.1667 15.5972 14.1667 15.8334C14.1667 16.0695 14.2465 16.2674 14.4062 16.4271C14.566 16.5868 14.7639 16.6667 15 16.6667Z" fill="white"/>
</svg>
