<svg width="20" height="20" viewBox="0 0 20 20" fill="none" xmlns="http://www.w3.org/2000/svg">
<path d="M4.6424 18.9167C2.6924 18.9167 1.0424 17.2667 1.0424 15.3167V10.1834C1.00073 7.75004 1.90073 5.45837 3.58407 3.74171C5.2674 2.03337 7.52573 1.08337 9.95907 1.08337C14.9257 1.08337 18.9591 5.12504 18.9591 10.0834V15.2167C18.9591 17.2 17.3424 18.8167 15.3591 18.8167C13.4091 18.8167 11.7591 17.1667 11.7591 15.2167V12.875C11.7591 11.6667 12.7091 10.7167 13.9174 10.7167C15.1257 10.7167 16.0757 11.6667 16.0757 12.875V15.4C16.0757 15.7417 15.7924 16.025 15.4507 16.025C15.1091 16.025 14.8257 15.7417 14.8257 15.4V12.875C14.8257 12.3084 14.3674 11.9667 13.9174 11.9667C13.3507 11.9667 13.0091 12.425 13.0091 12.875V15.2167C13.0091 16.4917 14.0841 17.5667 15.3591 17.5667C16.6341 17.5667 17.7091 16.4917 17.7091 15.2167V10.0834C17.7091 5.80837 14.2341 2.33337 9.95907 2.33337C7.8674 2.33337 5.92573 3.14171 4.47573 4.61671C3.02573 6.09171 2.25073 8.06671 2.2924 10.1667V15.3167C2.2924 16.5917 3.3674 17.6667 4.6424 17.6667C5.9174 17.6667 6.9924 16.5917 6.9924 15.3167V12.975C6.9924 12.4084 6.53407 12.0667 6.08407 12.0667C5.5174 12.0667 5.17573 12.525 5.17573 12.975V15.4084C5.17573 15.75 4.8924 16.0334 4.55073 16.0334C4.20907 16.0334 3.92573 15.75 3.92573 15.4084V12.975C3.92573 11.7667 4.87573 10.8167 6.08407 10.8167C7.2924 10.8167 8.2424 11.7667 8.2424 12.975V15.3167C8.2424 17.2667 6.5924 18.9167 4.6424 18.9167Z" fill="#3D3D3D"/>
</svg>
