<svg width="4" height="14" viewBox="0 0 4 14" fill="none" xmlns="http://www.w3.org/2000/svg">
<path d="M1.9987 13.6666C1.54036 13.6666 1.148 13.5035 0.821615 13.1771C0.495226 12.8507 0.332031 12.4583 0.332031 12C0.332031 11.5416 0.495226 11.1493 0.821615 10.8229C1.148 10.4965 1.54036 10.3333 1.9987 10.3333C2.45703 10.3333 2.84939 10.4965 3.17578 10.8229C3.50217 11.1493 3.66537 11.5416 3.66537 12C3.66537 12.4583 3.50217 12.8507 3.17578 13.1771C2.84939 13.5035 2.45703 13.6666 1.9987 13.6666ZM1.9987 8.66665C1.54036 8.66665 1.148 8.50345 0.821615 8.17706C0.495226 7.85067 0.332031 7.45831 0.332031 6.99998C0.332031 6.54165 0.495226 6.14929 0.821615 5.8229C1.148 5.49651 1.54036 5.33331 1.9987 5.33331C2.45703 5.33331 2.84939 5.49651 3.17578 5.8229C3.50217 6.14929 3.66537 6.54165 3.66537 6.99998C3.66537 7.45831 3.50217 7.85067 3.17578 8.17706C2.84939 8.50345 2.45703 8.66665 1.9987 8.66665ZM1.9987 3.66665C1.54036 3.66665 1.148 3.50345 0.821615 3.17706C0.495226 2.85067 0.332031 2.45831 0.332031 1.99998C0.332031 1.54165 0.495226 1.14929 0.821615 0.822896C1.148 0.496507 1.54036 0.333313 1.9987 0.333313C2.45703 0.333313 2.84939 0.496507 3.17578 0.822896C3.50217 1.14929 3.66537 1.54165 3.66537 1.99998C3.66537 2.45831 3.50217 2.85067 3.17578 3.17706C2.84939 3.50345 2.45703 3.66665 1.9987 3.66665Z" fill="#3D3D3D"/>
</svg>
