<svg width="20" height="20" viewBox="0 0 20 20" fill="none" xmlns="http://www.w3.org/2000/svg">
<path d="M10.0003 19.0084C9.42533 19.0084 8.88366 18.7167 8.50033 18.2084L7.25033 16.5417C7.22533 16.5084 7.12533 16.4667 7.08366 16.4584H6.66699C3.19199 16.4584 1.04199 15.5167 1.04199 10.8334V6.66675C1.04199 2.98341 2.98366 1.04175 6.66699 1.04175H13.3337C17.017 1.04175 18.9587 2.98341 18.9587 6.66675V10.8334C18.9587 14.5167 17.017 16.4584 13.3337 16.4584H12.917C12.8503 16.4584 12.792 16.4917 12.7503 16.5417L11.5003 18.2084C11.117 18.7167 10.5753 19.0084 10.0003 19.0084ZM6.66699 2.29175C3.68366 2.29175 2.29199 3.68341 2.29199 6.66675V10.8334C2.29199 14.6001 3.58366 15.2084 6.66699 15.2084H7.08366C7.50866 15.2084 7.99199 15.4501 8.25033 15.7917L9.50033 17.4584C9.79199 17.8417 10.2087 17.8417 10.5003 17.4584L11.7503 15.7917C12.0253 15.4251 12.4587 15.2084 12.917 15.2084H13.3337C16.317 15.2084 17.7087 13.8167 17.7087 10.8334V6.66675C17.7087 3.68341 16.317 2.29175 13.3337 2.29175H6.66699Z" fill="white"/>
<path d="M10.0003 9.99992C9.53366 9.99992 9.16699 9.62492 9.16699 9.16659C9.16699 8.70825 9.54199 8.33325 10.0003 8.33325C10.4587 8.33325 10.8337 8.70825 10.8337 9.16659C10.8337 9.62492 10.467 9.99992 10.0003 9.99992Z" fill="white"/>
<path d="M13.3333 9.99992C12.8667 9.99992 12.5 9.62492 12.5 9.16659C12.5 8.70825 12.875 8.33325 13.3333 8.33325C13.7917 8.33325 14.1667 8.70825 14.1667 9.16659C14.1667 9.62492 13.8 9.99992 13.3333 9.99992Z" fill="white"/>
<path d="M6.66634 9.99992C6.19967 9.99992 5.83301 9.62492 5.83301 9.16659C5.83301 8.70825 6.20801 8.33325 6.66634 8.33325C7.12467 8.33325 7.49967 8.70825 7.49967 9.16659C7.49967 9.62492 7.13301 9.99992 6.66634 9.99992Z" fill="white"/>
</svg>
